<svg width="20" height="20" viewBox="0 0 20 20" fill="none" xmlns="http://www.w3.org/2000/svg">
<g opacity="0.4">
<path d="M6.66675 9.50015C6.66675 10.1418 7.16675 10.6668 7.77508 10.6668H9.02508C9.55841 10.6668 9.99175 10.2085 9.99175 9.65015C9.99175 9.04182 9.72508 8.82515 9.33341 8.68349L7.33341 7.98349C6.93341 7.84182 6.66675 7.62515 6.66675 7.01682C6.66675 6.45849 7.10008 6.00015 7.63341 6.00015H8.88341C9.50008 6.00849 10.0001 6.52515 10.0001 7.16682" stroke="#292D32" stroke-width="1.3" stroke-linecap="round" stroke-linejoin="round"/>
<path d="M8.3335 10.708V11.3247" stroke="#292D32" stroke-width="1.3" stroke-linecap="round" stroke-linejoin="round"/>
<path d="M8.3335 5.3418V5.9918" stroke="#292D32" stroke-width="1.3" stroke-linecap="round" stroke-linejoin="round"/>
</g>
<path d="M8.32508 14.9833C12.0024 14.9833 14.9834 12.0023 14.9834 8.32499C14.9834 4.64769 12.0024 1.66666 8.32508 1.66666C4.64779 1.66666 1.66675 4.64769 1.66675 8.32499C1.66675 12.0023 4.64779 14.9833 8.32508 14.9833Z" stroke="#292D32" stroke-width="1.3" stroke-linecap="round" stroke-linejoin="round"/>
<path opacity="0.4" d="M10.8167 16.5667C11.5667 17.625 12.7917 18.3167 14.1917 18.3167C16.4667 18.3167 18.3166 16.4667 18.3166 14.1917C18.3166 12.8083 17.6333 11.5833 16.5917 10.8333" stroke="#292D32" stroke-width="1.3" stroke-linecap="round" stroke-linejoin="round"/>
</svg>
