<svg width="102" height="122" viewBox="0 0 102 122" fill="none" xmlns="http://www.w3.org/2000/svg">
<path opacity="0.4" d="M61.3079 28.0403H52.703C45.6465 28.0403 39.9 22.2808 39.9 15.2082V6.58382C39.9 4.9425 38.5602 3.59961 36.9226 3.59961H24.2982C15.1277 3.59961 7.71387 9.56803 7.71387 20.2217V51.7775C7.71387 62.4312 15.1277 68.3996 24.2982 68.3996H47.7009C56.8715 68.3996 64.2853 62.4312 64.2853 51.7775V31.0245C64.2853 29.3832 62.9455 28.0403 61.3079 28.0403Z" fill="#C1C7D0"/>
<path d="M47.3142 4.22602C46.0935 3.0025 43.9795 3.83808 43.9795 5.53908V15.954C43.9795 20.3109 47.6715 23.9218 52.1675 23.9218C54.996 23.9517 58.9263 23.9517 62.2908 23.9517C63.9879 23.9517 64.8811 21.9522 63.6902 20.7586C59.4026 16.4314 51.7208 8.64266 47.3142 4.22602Z" fill="#C1C7D0"/>
<g filter="url(#filter0_d_2552_12734)">
<circle cx="60" cy="68" r="12" fill="#2950ED"/>
</g>
<path d="M59.997 68.0024L61.3552 69.0875M59.997 68.0024V72.8852V68.0024ZM59.997 68.0024L58.6387 69.0875L59.997 68.0024Z" stroke="white" stroke-width="1.5" stroke-linecap="round" stroke-linejoin="round"/>
<path d="M56.2121 66.4385C55.6982 66.5676 55.2493 66.8796 54.9496 67.316C54.6499 67.7523 54.5201 68.2829 54.5845 68.8081C54.649 69.3333 54.9032 69.8169 55.2996 70.1681C55.6959 70.5192 56.2071 70.7138 56.7369 70.7152H57.2803" stroke="white" stroke-width="1.5" stroke-linecap="round" stroke-linejoin="round"/>
<path d="M62.0779 65.3646C61.8922 64.6303 61.4338 63.9941 60.7957 63.5847C60.1576 63.1754 59.3875 63.0237 58.6416 63.1603C57.8956 63.2969 57.2295 63.7116 56.7784 64.3204C56.3273 64.9292 56.1249 65.6865 56.2123 66.4388C56.2123 66.4388 56.2954 66.9173 56.4655 67.1886" stroke="white" stroke-width="1.5" stroke-linecap="round" stroke-linejoin="round"/>
<path d="M62.7128 70.7148C63.0964 70.7145 63.4756 70.6331 63.8254 70.476C64.1752 70.3189 64.4878 70.0895 64.7424 69.8031C64.9971 69.5166 65.1881 69.1796 65.3029 68.8141C65.4178 68.4486 65.4538 68.063 65.4086 67.6826C65.3634 67.3022 65.238 66.9357 65.0408 66.6072C64.8435 66.2787 64.5788 65.9956 64.2641 65.7766C63.9493 65.5576 63.5917 65.4077 63.2148 65.3366C62.8378 65.2656 62.4501 65.275 62.0771 65.3644L61.3545 65.5608" stroke="white" stroke-width="1.5" stroke-linecap="round" stroke-linejoin="round"/>
<defs>
<filter id="filter0_d_2552_12734" x="18" y="38" width="84" height="84" filterUnits="userSpaceOnUse" color-interpolation-filters="sRGB">
<feFlood flood-opacity="0" result="BackgroundImageFix"/>
<feColorMatrix in="SourceAlpha" type="matrix" values="0 0 0 0 0 0 0 0 0 0 0 0 0 0 0 0 0 0 127 0" result="hardAlpha"/>
<feOffset dy="12"/>
<feGaussianBlur stdDeviation="15"/>
<feComposite in2="hardAlpha" operator="out"/>
<feColorMatrix type="matrix" values="0 0 0 0 0.0149094 0 0 0 0 0.0929887 0 0 0 0 0.407308 0 0 0 0.1 0"/>
<feBlend mode="normal" in2="BackgroundImageFix" result="effect1_dropShadow_2552_12734"/>
<feBlend mode="normal" in="SourceGraphic" in2="effect1_dropShadow_2552_12734" result="shape"/>
</filter>
</defs>
</svg>
